<?xml version="1.0" standalone="no"?>
<!DOCTYPE svg PUBLIC "-//W3C//DTD SVG 20010904//EN"
 "http://www.w3.org/TR/2001/REC-SVG-20010904/DTD/svg10.dtd">
<svg version="1.0" xmlns="http://www.w3.org/2000/svg"
 width="696.000000pt" height="535.000000pt" viewBox="0 0 696.000000 535.000000"
 preserveAspectRatio="xMidYMid meet">
<metadata>
Created by potrace 1.16, written by Peter Selinger 2001-2019
</metadata>
<g transform="translate(0.000000,535.000000) scale(0.100000,-0.100000)"
fill="#000000" stroke="none">
<path d="M2495 5319 c-39 -47 -60 -93 -114 -253 -61 -179 -63 -181 -111 -206
-63 -32 -148 -48 -415 -75 -282 -29 -441 -52 -665 -96 -418 -82 -796 -199
-963 -296 -67 -40 -92 -72 -83 -108 6 -22 12 -25 47 -25 46 0 64 8 134 61 86
64 240 132 385 169 199 51 1127 189 1504 223 l49 5 -7 -62 c-3 -33 -37 -241
-75 -461 -109 -631 -365 -2266 -497 -3180 -54 -373 -63 -550 -29 -550 15 0 23
13 38 60 48 159 168 829 286 1605 298 1951 342 2220 393 2430 28 114 40 136
80 144 168 29 697 56 1758 86 584 17 1024 45 1137 73 62 16 70 42 16 54 -63
13 -947 6 -1423 -11 -245 -9 -682 -20 -972 -23 l-528 -6 0 28 c0 15 27 108 60
205 64 190 73 240 41 240 -11 0 -31 -14 -46 -31z"/>
<path d="M6464 5082 c-117 -41 -281 -169 -509 -397 -491 -491 -1208 -1441
-1844 -2445 -175 -276 -191 -300 -202 -300 -16 0 -9 246 11 448 11 108 36 319
55 467 98 765 118 1251 61 1522 -73 346 -255 333 -531 -38 -365 -491 -679
-1383 -766 -2179 -17 -152 -17 -502 0 -605 25 -155 88 -312 114 -286 13 13 13
21 7 501 -3 221 0 320 13 438 87 779 356 1571 685 2012 108 145 285 310 333
310 27 0 75 -70 91 -133 18 -70 15 -336 -6 -582 -9 -104 -34 -377 -56 -605
-74 -783 -99 -1202 -76 -1318 15 -80 61 -76 147 15 102 107 218 268 529 728
495 733 791 1130 1149 1545 158 182 411 441 562 575 262 231 360 261 409 125
19 -52 24 -288 11 -457 -55 -677 -307 -2050 -601 -3273 -94 -392 -193 -819
-220 -953 -20 -103 -20 -140 0 -107 21 34 103 270 169 490 315 1050 584 2268
705 3190 45 344 50 421 50 770 0 469 -13 525 -126 549 -68 15 -105 13 -164 -7z"/>
</g>
</svg>
