<svg xmlns="http://www.w3.org/2000/svg" version="1.0" preserveAspectRatio="xMidYMid meet" viewBox="8.95 8 208.73 117.5">

<g transform="translate(0.000000,139.000000) scale(0.100000,-0.100000)" fill="#000000" stroke="none">
<path d="M862 1283 c-6 -16 -12 -35 -15 -44 -4 -12 -24 -18 -81 -22 -134 -12 -296 -60 -274 -83 5 -4 16 0 25 8 10 9 37 21 61 28 41 11 254 41 258 37 1 -1 -4 -33 -11 -72 -13 -67 -76 -474 -90 -580 -4 -34 -3 -47 3 -40 6 6 27 118 47 250 56 371 66 429 75 439 4 4 112 11 239 14 144 3 237 9 246 16 11 8 -51 9 -231 3 -135 -5 -248 -6 -251 -4 -2 3 3 21 11 41 8 20 11 36 7 36 -5 0 -13 -12 -19 -27z"/>
<path d="M1462 1224 c-85 -75 -229 -266 -349 -460 -11 -17 -12 -16 -12 11 -1 17 6 80 14 140 35 264 2 346 -87 215 -87 -128 -143 -383 -105 -473 10 -24 12 -16 8 58 -6 155 60 364 139 440 26 25 32 27 40 15 13 -21 13 -40 -7 -243 -12 -129 -14 -180 -6 -188 8 -8 34 23 94 112 108 163 193 271 268 342 80 77 97 74 94 -13 -4 -97 -48 -342 -97 -545 -24 -99 -43 -181 -41 -183 1 -2 13 29 25 69 77 253 133 548 128 671 -3 70 -4 73 -29 76 -19 2 -39 -9 -77 -44z"/>
<path d="M93 253 c13 -4 17 -15 17 -59 0 -30 5 -54 10 -54 6 0 10 24 10 54 0 44 4 55 18 59 9 3 -3 5 -28 5 -25 0 -37 -2 -27 -5z"/>
<path d="M216 244 c-35 -34 -8 -104 41 -104 45 0 71 71 37 104 -8 9 -26 16 -39 16 -13 0 -31 -7 -39 -16z m66 -11 c24 -22 23 -49 -4 -67 -19 -13 -25 -14 -43 -2 -27 18 -31 43 -9 67 21 23 32 24 56 2z"/>
<path d="M370 223 c0 -21 -3 -48 -6 -60 -4 -14 -2 -23 5 -23 6 0 11 19 11 47 0 52 11 49 30 -10 14 -44 18 -42 42 16 17 41 17 41 18 12 1 -16 5 -39 10 -50 7 -16 9 -11 9 20 1 46 -8 85 -19 85 -4 0 -15 -19 -24 -42 l-18 -43 -18 43 c-24 52 -40 54 -40 5z"/>
<path d="M575 248 c-25 -70 -34 -102 -30 -106 2 -3 7 3 11 12 8 21 60 21 68 0 4 -9 9 -15 11 -12 8 8 -36 118 -47 118 -5 0 -11 -6 -13 -12z m25 -27 c0 -5 3 -16 6 -25 4 -12 0 -16 -15 -16 -22 0 -25 8 -15 34 7 17 24 22 24 7z"/>
<path d="M691 242 c-12 -22 -2 -35 37 -47 15 -4 22 -13 20 -23 -4 -18 -20 -20 -53 -6 -18 7 -18 6 -6 -9 24 -30 81 -16 81 21 0 7 -16 20 -35 28 -19 8 -35 19 -35 24 0 18 29 23 47 9 14 -12 16 -12 11 1 -7 24 -55 25 -67 2z"/>
<path d="M897 253 c-4 -3 -7 -31 -6 -62 l1 -56 13 50 c7 28 13 44 14 37 0 -7 8 -29 17 -50 l16 -37 18 45 c19 46 25 43 33 -15 2 -16 5 -2 6 33 1 74 -18 85 -39 22 -7 -22 -16 -40 -20 -40 -4 0 -12 18 -19 40 -11 39 -20 47 -34 33z"/>
<path d="M1087 218 c-8 -24 -18 -51 -22 -60 -4 -11 -3 -18 4 -18 6 0 11 7 11 15 0 21 49 19 67 -2 13 -17 14 -16 9 8 -9 40 -35 99 -45 99 -5 0 -16 -19 -24 -42z m42 -25 c1 -7 -8 -13 -19 -13 -23 0 -23 0 -9 37 10 26 12 27 19 8 5 -11 9 -26 9 -32z"/>
<path d="M1212 203 c3 -55 4 -58 31 -61 15 -2 27 1 27 7 0 6 -9 11 -20 11 -17 0 -20 7 -20 50 0 28 -5 50 -10 50 -7 0 -10 -22 -8 -57z"/>
<path d="M1320 200 c0 -56 2 -60 23 -60 36 0 67 27 67 59 0 34 -28 61 -63 61 -26 0 -27 -2 -27 -60z m54 37 c12 -9 17 -23 14 -42 -2 -24 -8 -31 -30 -33 -26 -3 -28 -1 -28 36 0 53 11 63 44 39z"/>
<path d="M1476 244 c-9 -8 -16 -28 -16 -44 0 -54 59 -80 93 -42 35 39 11 102 -38 102 -13 0 -31 -7 -39 -16z m68 -13 c22 -24 18 -49 -9 -67 -18 -12 -24 -11 -43 2 -26 18 -28 46 -6 68 21 21 37 20 58 -3z"/>
<path d="M1632 198 l1 -63 6 50 6 50 30 -47 c17 -27 33 -48 38 -48 4 0 6 28 5 63 l-1 62 -6 -50 -6 -50 -30 47 c-16 27 -33 48 -37 48 -5 0 -7 -28 -6 -62z"/>
<path d="M1797 218 c-8 -24 -18 -51 -22 -60 -4 -11 -3 -18 4 -18 6 0 11 7 11 15 0 21 49 19 67 -2 13 -17 14 -16 9 8 -9 40 -35 99 -45 99 -5 0 -16 -19 -24 -42z m42 -25 c1 -7 -8 -13 -19 -13 -23 0 -23 0 -9 37 10 26 12 27 19 8 5 -11 9 -26 9 -32z"/>
<path d="M1920 200 c0 -59 0 -60 28 -60 42 0 65 22 65 60 0 38 -23 60 -65 60 -28 0 -28 -1 -28 -60z m61 40 c34 -19 21 -80 -17 -80 -22 0 -24 4 -24 45 0 46 7 53 41 35z"/>
<path d="M2074 235 c-34 -52 15 -112 71 -87 54 25 35 112 -25 112 -20 0 -35 -8 -46 -25z m70 2 c12 -9 17 -23 14 -42 -3 -27 -7 -30 -38 -30 -31 0 -35 3 -38 30 -3 26 17 55 38 55 3 0 14 -6 24 -13z"/>
</g>
</svg>